<svg id="visual" viewBox="0 0 900 600" width="900" height="600" xmlns="http://www.w3.org/2000/svg" xmlns:xlink="http://www.w3.org/1999/xlink" version="1.1"><rect x="0" y="0" width="900" height="600" fill="#001220"></rect><defs><linearGradient id="grad1_0" x1="33.3%" y1="0%" x2="100%" y2="100%"><stop offset="20%" stop-color="#001220" stop-opacity="1"></stop><stop offset="80%" stop-color="#001220" stop-opacity="1"></stop></linearGradient></defs><defs><linearGradient id="grad2_0" x1="0%" y1="0%" x2="66.7%" y2="100%"><stop offset="20%" stop-color="#001220" stop-opacity="1"></stop><stop offset="80%" stop-color="#001220" stop-opacity="1"></stop></linearGradient></defs><g transform="translate(900, 0)"><path d="M0 351.5C-27.3 344 -54.6 336.5 -72.5 317.8C-90.5 299.2 -99.1 269.5 -129.3 268.5C-159.5 267.5 -211.2 295.2 -219.2 274.8C-227.2 254.5 -191.5 186.1 -194.7 155.2C-197.8 124.4 -239.9 131.1 -248.7 119.8C-257.5 108.4 -233.1 78.8 -244.7 55.9C-256.3 32.9 -303.9 16.4 -351.5 0L0 0Z" fill="#3cfa6a"></path></g><g transform="translate(0, 600)"><path d="M0 -351.5C25.5 -346.3 51 -341.1 76.5 -335.4C102.1 -329.6 127.6 -323.3 147.5 -306.3C167.5 -289.4 181.8 -261.8 188.9 -236.9C196 -212 195.8 -189.8 225.9 -180.2C256.1 -170.5 316.6 -173.4 316.7 -152.5C316.9 -131.6 256.8 -87 252.5 -57.6C248.3 -28.3 299.9 -14.1 351.5 0L0 0Z" fill="#3cfa6a"></path></g></svg>